:SAMPLES-PER-SECOND 30
:FULLY-SPECIFIED
:DEGREES
232
root  30.9633 37.6 19.9213 155.887 76.2349 157.676
RightUpLeg  -13.5923 -19.4381 -21.6761
RightLeg  -8.28601 -29.2818 10.0252
RightFoot  6.48467 -3.27714 21.0033
RightToes  0.00048216 0.542163 -0.142577
Spine  37.8616 -2.94402 1.06301
Spine1  13.4392 -1.00235 -5.40345
HEad  -1.80149 49.2575 -28.0417
LeftShoulder1  7.95549 -13.9645 -39.3308
LeftArm  -16.4583 26.8275 -15.3721
LeftForeArm  16.5603 -29.5504 -5.50948
LeftHand  -0.25398 0.0180481 5.50724
RightShoulder  5.74682 9.95217 36.7084
RightArm  4.06119 -32.2546 35.174
RightForeArm  -3.06928 16.2128 7.13471
RightHand  -0.0266468 -5.41567 -11.6273
LeftUpLeg  -12.6818 2.29242 -3.33459
LeftLeg  38.2633 0.769103 1.04578
LeftFoot  -20.35 0.0650377 -0.737496
LeftToes  1.06248e-005 4.65855e-005 -8.185e-006
233
root  29.8484 37.9273 19.1959 158.1 76.6929 160.637
RightUpLeg  -14.1171 -20.9327 -21.2718
RightLeg  -2.04251 -26.2934 7.59444
RightFoot  7.20501 -2.74284 16.9829
RightToes  0.00048216 0.542163 -0.142577
Spine  37.0762 -3.06862 1.61962
Spine1  13.4772 -0.755716 -6.20212
HEad  -0.830132 50.7621 -27.6171
LeftShoulder1  7.7442 -13.4652 -39.4219
LeftArm  -17.8885 27.2801 -15.4545
LeftForeArm  14.8915 -31.6734 -6.1199
LeftHand  -0.25398 0.0180481 5.50724
RightShoulder  5.68382 9.72591 36.955
RightArm  -3.1467 -32.6493 36.0425
RightForeArm  -2.38181 14.7068 7.01241
RightHand  -0.0762374 -4.9147 -12.4898
LeftUpLeg  -12.708 4.25973 -3.84105
LeftLeg  36.3782 -0.369199 0.0916722
LeftFoot  -17.9745 0.13801 0.533496
LeftToes  1.06248e-005 4.65855e-005 -8.185e-006
234
root  28.8141 38.3384 18.531 160.663 77.6552 163.991
RightUpLeg  -16.5592 -26.9303 -17.9685
RightLeg  9.19168 -15.0717 2.57212
RightFoot  6.67976 -2.36015 15.0942
RightToes  0.00048216 0.542163 -0.142577
Spine  36.4446 -3.08185 2.26807
Spine1  12.9256 -0.251336 -7.29346
HEad  0.699578 52.1121 -26.9806
LeftShoulder1  7.63823 -13.0488 -39.9037
LeftArm  -19.517 27.8694 -16.6104
LeftForeArm  14.1031 -32.906 -6.47808
LeftHand  -0.25398 0.0180481 5.50724
RightShoulder  5.70344 9.72873 37.0901
RightArm  -6.83425 -31.2464 36.1972
RightForeArm  -2.06709 13.3895 6.96114
RightHand  -0.104398 -4.64195 -12.3683
LeftUpLeg  -11.9578 6.52788 -4.11976
LeftLeg  33.2215 -1.07793 -0.396403
LeftFoot  -15.3562 0.176334 2.46122
LeftToes  1.06248e-005 4.65855e-005 -8.185e-006
235
root  27.8417 38.8233 17.8975 164.86 78.8892 168.845
RightUpLeg  -18.5765 -34.8241 -12.5548
RightLeg  18.8883 -3.43051 -2.07078
RightFoot  5.20529 -1.95138 13.5981
RightToes  0.00048216 0.542163 -0.142577
Spine  35.5377 -3.0033 3.25165
Spine1  12.4604 0.374951 -8.17294
HEad  2.39251 53.1399 -26.1058
LeftShoulder1  7.71035 -12.8511 -40.8444
LeftArm  -20.641 28.3305 -18.4312
LeftForeArm  14.1033 -32.915 -6.48159
LeftHand  -0.25398 0.0180481 5.50724
RightShoulder  5.74525 9.84914 37.017
RightArm  -7.13921 -28.5987 35.7917
RightForeArm  -1.50949 13.1768 6.93596
RightHand  -0.0751139 -4.87833 -11.1834
LeftUpLeg  -10.7812 8.27178 -4.10567
LeftLeg  29.0641 -1.23924 -0.393268
LeftFoot  -12.1006 0.102579 4.29907
LeftToes  1.06248e-005 4.65855e-005 -8.185e-006
236
root  26.9101 39.329 17.2557 170.228 80.5011 174.505
RightUpLeg  -17.2065 -29.6347 -12.1007
RightLeg  27.6703 -8.57874 -5.10876
RightFoot  3.70764 -1.45382 11.1646
RightToes  0.00048216 0.542163 -0.142577
Spine  34.0101 -2.75287 4.53762
Spine1  12.2128 1.22169 -8.99154
HEad  3.72965 53.8175 -24.9558
LeftShoulder1  7.87625 -12.8341 -41.8417
LeftArm  -20.8265 28.8304 -20.7188
LeftForeArm  14.3281 -31.8245 -6.19148
LeftHand  -0.25398 0.0180481 5.50724
RightShoulder  5.75547 9.94492 36.7932
RightArm  -4.86651 -25.5502 35.1468
RightForeArm  -2.25178 14.8507 6.71135
RightHand  -0.0910783 -4.70921 -11.0412
LeftUpLeg  -9.44217 10.3328 -3.96491
LeftLeg  24.0535 -1.81644 -0.484115
LeftFoot  -8.49284 -0.0748749 5.14256
LeftToes  1.06248e-005 4.65855e-005 -8.185e-006
237
root  26.0289 39.7166 16.6209 175.485 82.5127 179.965
RightUpLeg  -15.8792 -26.8838 -10.7632
RightLeg  35.9801 -10.7751 -8.50403
RightFoot  2.26522 -1.07105 9.09443
RightToes  0.00048216 0.542163 -0.142577
Spine  32.2206 -2.29419 5.61667
Spine1  11.7315 2.25634 -10.1212
HEad  4.32934 54.4327 -23.5988
LeftShoulder1  8.00015 -12.8213 -42.5831
LeftArm  -20.3496 29.8185 -23.3541
LeftForeArm  14.9254 -30.3024 -5.78146
LeftHand  -0.25398 0.0180481 5.50724
RightShoulder  5.72828 9.95134 36.5768
RightArm  -1.29169 -22.5025 34.3983
RightForeArm  -5.21948 18.2701 6.004
RightHand  -0.217358 -3.63123 -12.9391
LeftUpLeg  -8.02444 13.2115 -3.8381
LeftLeg  19.057 -2.72341 -1.00304
LeftFoot  -5.35557 -0.271365 5.78499
LeftToes  1.06248e-005 4.65855e-005 -8.185e-006
238
root  25.1885 39.9331 16.0129 -178.924 84.5308 -173.975
RightUpLeg  -13.2944 -25.2316 -9.70725
RightLeg  42.7619 -10.1601 -10.1719
RightFoot  0.531332 -0.891344 8.60857
RightToes  0.00048216 0.542163 -0.142577
Spine  30.5664 -1.74695 6.29057
Spine1  11.0114 3.20006 -11.2338
HEad  4.24027 55.1262 -22.3461
LeftShoulder1  8.07505 -12.7165 -43.302
LeftArm  -19.5484 31.1656 -25.9174
LeftForeArm  16.3469 -28.7433 -5.33165
LeftHand  -0.25398 0.0180481 5.50724
RightShoulder  5.67593 9.85858 36.4834
RightArm  0.80194 -19.3477 33.4579
RightForeArm  -7.73275 22.6506 5.43402
RightHand  -0.390869 -2.46687 -15.1024
LeftUpLeg  -6.50231 13.1892 -3.31458
LeftLeg  14.7872 -0.394238 -2.20508
LeftFoot  -2.86216 -0.503813 7.01383
LeftToes  1.06248e-005 4.65855e-005 -8.185e-006
239
root  24.388 40.0151 15.4336 -176.463 86.2469 -171.243
RightUpLeg  -9.65795 -24.1597 -9.20054
RightLeg  47.3423 -8.64631 -10.2323
RightFoot  -1.03023 -0.849046 9.31289
RightToes  0.00048216 0.542163 -0.142577
Spine  28.3049 -1.04703 6.35258
Spine1  10.6951 3.94617 -11.7479
HEad  3.94776 55.5687 -21.4135
LeftShoulder1  8.15064 -12.5634 -44.1684
LeftArm  -18.2585 32.2301 -28.0693
LeftForeArm  18.1749 -26.843 -4.79648
LeftHand  -0.25398 0.0180481 5.50724
RightShoulder  5.61355 9.68883 36.5554
RightArm  -0.772946 -16.0179 32.3191
RightForeArm  -6.93665 27.4283 6.24391
RightHand  -0.453606 -2.14615 -15.8648
LeftUpLeg  -5.46808 9.40251 -3.09845
LeftLeg  11.0329 5.18093 -3.78662
LeftFoot  -0.588215 -0.755642 8.06738
LeftToes  1.06248e-005 4.65855e-005 -8.185e-006
